<svg data-v-423bf9ae="" xmlns="http://www.w3.org/2000/svg" viewBox="0 0 475 90" class="iconLeft"><!----><!----><!----><g data-v-423bf9ae="" id="7383f74e-65c2-4fe3-b485-195357e1f88a" fill="black" transform="matrix(4.353741645812988,0,0,4.353741645812988,89.45175170898438,1.8537399768829346)"><path d="M3.27 6.00L7.85 6.00L7.85 4.36L1.37 4.36L1.37 13.52L7.85 13.52L7.85 11.84L3.27 11.84L3.27 9.63L7.31 9.63L7.31 8.08L3.27 8.08ZM12.74 6.44C10.96 6.44 9.53 7.81 9.53 10.12C9.53 12.41 10.96 13.73 12.62 13.73C13.64 13.73 14.42 13.10 14.83 12.36L14.83 13.52L16.57 13.52L16.57 6.62L14.83 6.62L14.83 7.40C14.31 6.82 13.49 6.44 12.74 6.44ZM13.10 8.13C13.77 8.13 14.34 8.48 14.83 9.00L14.83 9.98C14.85 11.22 13.97 11.99 13.06 11.99C12.02 11.99 11.33 11.16 11.33 10.12C11.33 9.08 12.02 8.13 13.10 8.13ZM20.93 6.44C19.37 6.44 18.28 7.33 18.28 8.63C18.28 9.50 18.62 10.14 19.67 10.50L20.52 10.80C21.12 11.01 21.44 11.16 21.44 11.51C21.44 11.96 21.05 12.22 20.36 12.22C19.69 12.22 18.76 11.87 18.24 11.51L18.24 13.03C18.70 13.37 19.66 13.73 20.59 13.73C22.07 13.73 23.27 12.78 23.27 11.51C23.27 10.62 22.76 10.01 21.70 9.69L20.92 9.43C20.30 9.24 20.13 9.01 20.13 8.71C20.13 8.30 20.54 7.97 21.19 7.97C21.88 7.97 22.54 8.31 22.97 8.60L22.97 7.07C22.57 6.73 21.79 6.44 20.93 6.44ZM31.71 6.62L29.72 6.62L27.81 11.02L25.84 6.62L23.82 6.62L26.80 13.02L24.72 16.80L26.69 16.80ZM45.83 13.52L48.92 4.36L46.76 4.36L45.04 10.14L43.13 4.36L41.86 4.36L39.94 10.14L38.24 4.36L36.08 4.36L39.13 13.52L40.44 13.52L42.48 7.63L44.52 13.52ZM52.86 6.44C51.08 6.44 49.64 7.81 49.64 10.12C49.64 12.41 51.08 13.73 52.73 13.73C53.76 13.73 54.54 13.10 54.95 12.36L54.95 13.52L56.68 13.52L56.68 6.62L54.95 6.62L54.95 7.40C54.43 6.82 53.61 6.44 52.86 6.44ZM53.21 8.13C53.88 8.13 54.46 8.48 54.95 9.00L54.95 9.98C54.96 11.22 54.09 11.99 53.17 11.99C52.13 11.99 51.45 11.16 51.45 10.12C51.45 9.08 52.13 8.13 53.21 8.13ZM60.27 5.37C60.92 5.37 61.47 4.83 61.47 4.20C61.47 3.55 60.92 3.02 60.27 3.02C59.61 3.02 59.08 3.55 59.08 4.20C59.08 4.83 59.61 5.37 60.27 5.37ZM61.24 6.62L58.39 6.62L58.39 8.09L59.50 8.09L59.50 13.52L61.24 13.52ZM65.84 6.62L65.84 4.61L64.96 4.61C64.52 6.02 63.75 6.86 62.86 7.18L62.86 8.07L64.11 8.07L64.11 11.50C64.11 12.88 64.97 13.73 66.20 13.73C66.99 13.73 67.48 13.45 67.83 13.11L67.83 11.73C67.51 11.92 67.18 12.04 66.69 12.04C66.13 12.04 65.84 11.66 65.84 11.05L65.84 8.07L67.76 8.07L67.76 6.62ZM71.34 13.52L71.34 3.68L69.60 3.68L69.60 13.52ZM74.91 5.37C75.56 5.37 76.11 4.83 76.11 4.20C76.11 3.55 75.56 3.02 74.91 3.02C74.25 3.02 73.72 3.55 73.72 4.20C73.72 4.83 74.25 5.37 74.91 5.37ZM75.88 6.62L73.04 6.62L73.04 8.09L74.14 8.09L74.14 13.52L75.88 13.52ZM80.21 6.44C78.65 6.44 77.56 7.33 77.56 8.63C77.56 9.50 77.90 10.14 78.96 10.50L79.80 10.80C80.40 11.01 80.72 11.16 80.72 11.51C80.72 11.96 80.34 12.22 79.64 12.22C78.97 12.22 78.04 11.87 77.52 11.51L77.52 13.03C77.98 13.37 78.94 13.73 79.87 13.73C81.35 13.73 82.55 12.78 82.55 11.51C82.55 10.62 82.04 10.01 80.98 9.69L80.20 9.43C79.58 9.24 79.41 9.01 79.41 8.71C79.41 8.30 79.82 7.97 80.47 7.97C81.16 7.97 81.83 8.31 82.25 8.60L82.25 7.07C81.85 6.73 81.07 6.44 80.21 6.44ZM86.53 6.62L86.53 4.61L85.64 4.61C85.20 6.02 84.44 6.86 83.55 7.18L83.55 8.07L84.79 8.07L84.79 11.50C84.79 12.88 85.65 13.73 86.88 13.73C87.68 13.73 88.17 13.45 88.51 13.11L88.51 11.73C88.20 11.92 87.87 12.04 87.38 12.04C86.82 12.04 86.53 11.66 86.53 11.05L86.53 8.07L88.44 8.07L88.44 6.62Z"></path></g><!----><g data-v-423bf9ae="" id="5a458f66-2d8b-4aa4-872a-449e001fc887" transform="matrix(1.40625,0,0,1.40625,-32.12890625,-25.3125)" stroke="none" fill="black"><path d="M50.195 18v.02c-.498 0-.96.259-1.234.672-2.738 3.97-11.417 7.347-21.346 7.405h-.078c-.059 0-.117-.024-.176-.024-.716 0-1.331.496-1.477 1.192 0 0-1.502 6.75-2.253 14.912-.752 8.163-.906 17.72 2.394 23.893 2.472 4.623 8.32 8.342 13.542 11.17 4.829 2.617 8.81 4.199 9.436 4.445.285.22.64.33 1 .313.363.02.72-.096 1.004-.32h.008c.653-.257 4.617-1.827 9.429-4.434 5.221-2.828 11.062-6.547 13.534-11.17 3.3-6.172 3.142-15.73 2.39-23.893-.752-8.163-2.253-14.912-2.253-14.912a1.5 1.5 0 0 0-1.516-1.192h-.12c-9.543-.038-17.926-3.234-20.85-7.093a1.502 1.502 0 0 0-1.434-.976zM50 33.999c8.818 0 15.998 7.18 15.998 15.998S58.818 65.996 50 65.996 34 58.815 34 49.997c0-8.818 7.18-15.998 15.999-15.998zm0 3a12.976 12.976 0 0 0-13 12.998 12.976 12.976 0 0 0 13 12.999 12.976 12.976 0 0 0 12.998-12.999A12.976 12.976 0 0 0 50 36.998zm-2.766 3.206h5.531a1.5 1.5 0 0 1 1.496 1.5v4.027h4.03a1.5 1.5 0 0 1 1.5 1.5v5.527a1.5 1.5 0 0 1-1.5 1.5h-4.03v4.03a1.5 1.5 0 0 1-1.496 1.496h-5.53a1.5 1.5 0 0 1-1.497-1.496v-4.03h-4.03a1.5 1.5 0 0 1-1.5-1.5v-5.527a1.5 1.5 0 0 1 1.5-1.5h4.03v-4.027a1.5 1.5 0 0 1 1.496-1.5zm1.5 3v4.027a1.5 1.5 0 0 1-1.5 1.5h-4.027v2.53h4.027a1.5 1.5 0 0 1 1.5 1.497v4.03h2.531v-4.03a1.5 1.5 0 0 1 1.5-1.496h4.027v-2.531h-4.027a1.5 1.5 0 0 1-1.5-1.5v-4.027h-2.53z" style="line-height:normal;text-indent:0;text-align:start;text-decoration-line:none;text-decoration-style:solid;text-decoration-color:#000;text-transform:none;block-progression:tb;isolation:auto;mix-blend-mode:normal" color="#000" font-weight="400" font-family="sans-serif" white-space="normal" overflow="visible" stroke-width=".882" stroke-linecap="round" stroke-linejoin="round"></path></g><!----></svg>