<?xml version="1.0" encoding="UTF-8" standalone="no"?>
<svg
   xmlns:dc="http://purl.org/dc/elements/1.1/"
   xmlns:cc="http://creativecommons.org/ns#"
   xmlns:rdf="http://www.w3.org/1999/02/22-rdf-syntax-ns#"
   xmlns:svg="http://www.w3.org/2000/svg"
   xmlns="http://www.w3.org/2000/svg"
   xmlns:xlink="http://www.w3.org/1999/xlink"
   xmlns:sodipodi="http://sodipodi.sourceforge.net/DTD/sodipodi-0.dtd"
   xmlns:inkscape="http://www.inkscape.org/namespaces/inkscape"
   data-v-fde0c5aa=""
   viewBox="0 0 219.99666 40.962399"
   class="iconLeft"
   version="1.1"
   id="svg21"
   sodipodi:docname="default-tight.svg"
   width="219.99666"
   height="40.962399"
   inkscape:version="1.0.1 (0767f8302a, 2020-10-17)">
  <metadata
     id="metadata25">
    <rdf:RDF>
      <cc:Work
         rdf:about="">
        <dc:format>image/svg+xml</dc:format>
        <dc:type
           rdf:resource="http://purl.org/dc/dcmitype/StillImage" />
        <dc:title></dc:title>
      </cc:Work>
    </rdf:RDF>
  </metadata>
  <sodipodi:namedview
     pagecolor="#ffffff"
     bordercolor="#666666"
     borderopacity="1"
     objecttolerance="10"
     gridtolerance="10"
     guidetolerance="10"
     inkscape:pageopacity="0"
     inkscape:pageshadow="2"
     inkscape:window-width="3840"
     inkscape:window-height="2068"
     id="namedview23"
     showgrid="false"
     inkscape:pagecheckerboard="true"
     fit-margin-top="0"
     fit-margin-left="0"
     fit-margin-right="0"
     fit-margin-bottom="0"
     inkscape:zoom="2.6433333"
     inkscape:cx="110.75669"
     inkscape:cy="50.745946"
     inkscape:window-x="0"
     inkscape:window-y="49"
     inkscape:window-maximized="1"
     inkscape:current-layer="svg21" />
  <!---->
  <defs
     data-v-fde0c5aa=""
     id="defs2">
    <!---->
    <linearGradient
       inkscape:collect="always"
       xlink:href="#52ba8d79-ae63-4e80-8068-e05631fdd75a"
       id="linearGradient27"
       gradientTransform="scale(0.91543144,1.0923811)"
       x1="25.325205"
       y1="16.477766"
       x2="83.913015"
       y2="16.477766"
       gradientUnits="userSpaceOnUse" />
    <linearGradient
       inkscape:collect="always"
       xlink:href="#52ba8d79-ae63-4e80-8068-e05631fdd75a"
       id="linearGradient29"
       gradientTransform="scale(0.91543144,1.0923811)"
       x1="25.325205"
       y1="16.477766"
       x2="83.913015"
       y2="16.477766"
       gradientUnits="userSpaceOnUse" />
  </defs>
  <defs
     data-v-fde0c5aa=""
     id="defs6">
    <!---->
  </defs>
  <g
     data-v-fde0c5aa=""
     id="a9f92534-b44b-405a-aa42-002f497520bc"
     fill="#000000"
     transform="matrix(1.9815454,0,0,1.9815454,44.610076,0.84370912)">
    <path
       d="M 3.27,6 H 7.85 V 4.36 H 1.37 v 9.16 H 7.85 V 11.84 H 3.27 V 9.63 H 7.31 V 8.08 H 3.27 Z m 9.47,0.44 c -1.78,0 -3.21,1.37 -3.21,3.68 0,2.29 1.43,3.61 3.09,3.61 1.02,0 1.8,-0.63 2.21,-1.37 v 1.16 h 1.74 V 6.62 H 14.83 V 7.4 C 14.31,6.82 13.49,6.44 12.74,6.44 Z m 0.36,1.69 c 0.67,0 1.24,0.35 1.73,0.87 v 0.98 c 0.02,1.24 -0.86,2.01 -1.77,2.01 -1.04,0 -1.73,-0.83 -1.73,-1.87 0,-1.04 0.69,-1.99 1.77,-1.99 z m 7.83,-1.69 c -1.56,0 -2.65,0.89 -2.65,2.19 0,0.87 0.34,1.51 1.39,1.87 l 0.85,0.3 c 0.6,0.21 0.92,0.36 0.92,0.71 0,0.45 -0.39,0.71 -1.08,0.71 -0.67,0 -1.6,-0.35 -2.12,-0.71 v 1.52 c 0.46,0.34 1.42,0.7 2.35,0.7 1.48,0 2.68,-0.95 2.68,-2.22 0,-0.89 -0.51,-1.5 -1.57,-1.82 L 20.92,9.43 C 20.3,9.24 20.13,9.01 20.13,8.71 c 0,-0.41 0.41,-0.74 1.06,-0.74 0.69,0 1.35,0.34 1.78,0.63 V 7.07 C 22.57,6.73 21.79,6.44 20.93,6.44 Z m 10.78,0.18 h -1.99 l -1.91,4.4 -1.97,-4.4 h -2.02 l 2.98,6.4 -2.08,3.78 h 1.97 z m 14.12,6.9 3.09,-9.16 h -2.16 l -1.72,5.78 -1.91,-5.78 h -1.27 l -1.92,5.78 -1.7,-5.78 h -2.16 l 3.05,9.16 h 1.31 l 2.04,-5.89 2.04,5.89 z m 7.03,-7.08 c -1.78,0 -3.22,1.37 -3.22,3.68 0,2.29 1.44,3.61 3.09,3.61 1.03,0 1.81,-0.63 2.22,-1.37 v 1.16 h 1.73 V 6.62 H 54.95 V 7.4 C 54.43,6.82 53.61,6.44 52.86,6.44 Z m 0.35,1.69 c 0.67,0 1.25,0.35 1.74,0.87 v 0.98 c 0.01,1.24 -0.86,2.01 -1.78,2.01 -1.04,0 -1.72,-0.83 -1.72,-1.87 0,-1.04 0.68,-1.99 1.76,-1.99 z m 7.06,-2.76 c 0.65,0 1.2,-0.54 1.2,-1.17 0,-0.65 -0.55,-1.18 -1.2,-1.18 -0.66,0 -1.19,0.53 -1.19,1.18 0,0.63 0.53,1.17 1.19,1.17 z m 0.97,1.25 h -2.85 v 1.47 h 1.11 v 5.43 h 1.74 z m 4.6,0 V 4.61 h -0.88 c -0.44,1.41 -1.21,2.25 -2.1,2.57 v 0.89 h 1.25 v 3.43 c 0,1.38 0.86,2.23 2.09,2.23 0.79,0 1.28,-0.28 1.63,-0.62 v -1.38 c -0.32,0.19 -0.65,0.31 -1.14,0.31 -0.56,0 -0.85,-0.38 -0.85,-0.99 V 8.07 h 1.92 V 6.62 Z m 5.5,6.9 V 3.68 H 69.6 v 9.84 z m 3.57,-8.15 c 0.65,0 1.2,-0.54 1.2,-1.17 0,-0.65 -0.55,-1.18 -1.2,-1.18 -0.66,0 -1.19,0.53 -1.19,1.18 0,0.63 0.53,1.17 1.19,1.17 z m 0.97,1.25 h -2.84 v 1.47 h 1.1 v 5.43 h 1.74 z m 4.33,-0.18 c -1.56,0 -2.65,0.89 -2.65,2.19 0,0.87 0.34,1.51 1.4,1.87 l 0.84,0.3 c 0.6,0.21 0.92,0.36 0.92,0.71 0,0.45 -0.38,0.71 -1.08,0.71 -0.67,0 -1.6,-0.35 -2.12,-0.71 v 1.52 c 0.46,0.34 1.42,0.7 2.35,0.7 1.48,0 2.68,-0.95 2.68,-2.22 0,-0.89 -0.51,-1.5 -1.57,-1.82 L 80.2,9.43 C 79.58,9.24 79.41,9.01 79.41,8.71 c 0,-0.41 0.41,-0.74 1.06,-0.74 0.69,0 1.36,0.34 1.78,0.63 V 7.07 C 81.85,6.73 81.07,6.44 80.21,6.44 Z m 6.32,0.18 V 4.61 h -0.89 c -0.44,1.41 -1.2,2.25 -2.09,2.57 v 0.89 h 1.24 v 3.43 c 0,1.38 0.86,2.23 2.09,2.23 0.8,0 1.29,-0.28 1.63,-0.62 v -1.38 c -0.31,0.19 -0.64,0.31 -1.13,0.31 -0.56,0 -0.85,-0.38 -0.85,-0.99 V 8.07 h 1.91 V 6.62 Z"
       id="path8" />
  </g>
  <defs
     data-v-fde0c5aa=""
     id="defs16">
    <linearGradient
       data-v-fde0c5aa=""
       gradientTransform="rotate(25)"
       id="52ba8d79-ae63-4e80-8068-e05631fdd75a"
       x1="0"
       y1="0"
       x2="1"
       y2="0">
      <stop
         data-v-fde0c5aa=""
         offset="0%"
         stop-color="#01695A"
         stop-opacity="1"
         id="stop11" />
      <stop
         data-v-fde0c5aa=""
         offset="100%"
         stop-color="#2CC26F"
         stop-opacity="1"
         id="stop13" />
    </linearGradient>
  </defs>
  <g
     data-v-fde0c5aa=""
     id="c16e4711-f0ee-4820-9228-8a7d07024478"
     stroke="none"
     fill="url(#52ba8d79-ae63-4e80-8068-e05631fdd75a)"
     transform="matrix(0.64003533,0,0,0.64003533,-14.838251,-11.520641)"
     style="fill:url(#linearGradient29)">
    <path
       d="m 50.195,18 v 0.02 c -0.498,0 -0.96,0.259 -1.234,0.672 -2.738,3.97 -11.417,7.347 -21.346,7.405 h -0.078 c -0.059,0 -0.117,-0.024 -0.176,-0.024 -0.716,0 -1.331,0.496 -1.477,1.192 0,0 -1.502,6.75 -2.253,14.912 -0.752,8.163 -0.906,17.72 2.394,23.893 2.472,4.623 8.32,8.342 13.542,11.17 4.829,2.617 8.81,4.199 9.436,4.445 0.285,0.22 0.64,0.33 1,0.313 0.363,0.02 0.72,-0.096 1.004,-0.32 h 0.008 c 0.653,-0.257 4.617,-1.827 9.429,-4.434 5.221,-2.828 11.062,-6.547 13.534,-11.17 3.3,-6.172 3.142,-15.73 2.39,-23.893 -0.752,-8.163 -2.253,-14.912 -2.253,-14.912 a 1.5,1.5 0 0 0 -1.516,-1.192 h -0.12 C 62.936,26.039 54.553,22.843 51.629,18.984 A 1.502,1.502 0 0 0 50.195,18.008 Z M 50,33.999 c 8.818,0 15.998,7.18 15.998,15.998 0,8.818 -7.18,15.999 -15.998,15.999 -8.818,0 -16,-7.181 -16,-15.999 0,-8.818 7.18,-15.998 15.999,-15.998 z m 0,3 A 12.976,12.976 0 0 0 37,49.997 12.976,12.976 0 0 0 50,62.996 12.976,12.976 0 0 0 62.998,49.997 12.976,12.976 0 0 0 50,36.998 Z m -2.766,3.206 h 5.531 a 1.5,1.5 0 0 1 1.496,1.5 v 4.027 h 4.03 a 1.5,1.5 0 0 1 1.5,1.5 v 5.527 a 1.5,1.5 0 0 1 -1.5,1.5 h -4.03 v 4.03 a 1.5,1.5 0 0 1 -1.496,1.496 h -5.53 a 1.5,1.5 0 0 1 -1.497,-1.496 v -4.03 h -4.03 a 1.5,1.5 0 0 1 -1.5,-1.5 v -5.527 a 1.5,1.5 0 0 1 1.5,-1.5 h 4.03 v -4.027 a 1.5,1.5 0 0 1 1.496,-1.5 z m 1.5,3 v 4.027 a 1.5,1.5 0 0 1 -1.5,1.5 h -4.027 v 2.53 h 4.027 a 1.5,1.5 0 0 1 1.5,1.497 v 4.03 h 2.531 v -4.03 a 1.5,1.5 0 0 1 1.5,-1.496 h 4.027 v -2.531 h -4.027 a 1.5,1.5 0 0 1 -1.5,-1.5 v -4.027 h -2.53 z"
       style="line-height:normal;text-indent:0;text-align:start;text-decoration:none;text-decoration-line:none;text-decoration-style:solid;text-decoration-color:#000000;text-transform:none;isolation:auto;mix-blend-mode:normal;fill:url(#linearGradient27)"
       color="#000000"
       font-weight="400"
       font-family="sans-serif"
       white-space="normal"
       overflow="visible"
       stroke-width="0.882"
       stroke-linecap="round"
       stroke-linejoin="round"
       id="path18" />
  </g>
  <!---->
</svg>
