<?xml version="1.0" encoding="UTF-8" standalone="no"?>
<svg
   xmlns:dc="http://purl.org/dc/elements/1.1/"
   xmlns:cc="http://creativecommons.org/ns#"
   xmlns:rdf="http://www.w3.org/1999/02/22-rdf-syntax-ns#"
   xmlns:svg="http://www.w3.org/2000/svg"
   xmlns="http://www.w3.org/2000/svg"
   xmlns:xlink="http://www.w3.org/1999/xlink"
   xmlns:sodipodi="http://sodipodi.sourceforge.net/DTD/sodipodi-0.dtd"
   xmlns:inkscape="http://www.inkscape.org/namespaces/inkscape"
   data-v-fde0c5aa=""
   viewBox="0 0 34.327099 40.962399"
   class="iconLeft"
   version="1.1"
   id="svg21"
   sodipodi:docname="logo-tight.svg"
   width="34.327099"
   height="40.962399"
   inkscape:version="1.0.1 (0767f8302a, 2020-10-17)"
   inkscape:export-filename="/home/josh/easy-waitlist/src/logo/logo-tight-192.png"
   inkscape:export-xdpi="449.97366"
   inkscape:export-ydpi="449.97366">
  <metadata
     id="metadata25">
    <rdf:RDF>
      <cc:Work
         rdf:about="">
        <dc:format>image/svg+xml</dc:format>
        <dc:type
           rdf:resource="http://purl.org/dc/dcmitype/StillImage" />
        <dc:title></dc:title>
      </cc:Work>
    </rdf:RDF>
  </metadata>
  <sodipodi:namedview
     pagecolor="#ffffff"
     bordercolor="#666666"
     borderopacity="1"
     objecttolerance="10"
     gridtolerance="10"
     guidetolerance="10"
     inkscape:pageopacity="0"
     inkscape:pageshadow="2"
     inkscape:window-width="3840"
     inkscape:window-height="2068"
     id="namedview23"
     showgrid="false"
     inkscape:pagecheckerboard="true"
     fit-margin-top="0"
     fit-margin-left="0"
     fit-margin-right="0"
     fit-margin-bottom="0"
     inkscape:zoom="7.4764757"
     inkscape:cx="104.6758"
     inkscape:cy="27.494497"
     inkscape:window-x="0"
     inkscape:window-y="49"
     inkscape:window-maximized="1"
     inkscape:current-layer="svg21" />
  <!---->
  <defs
     data-v-fde0c5aa=""
     id="defs2">
    <!---->
    <linearGradient
       inkscape:collect="always"
       xlink:href="#52ba8d79-ae63-4e80-8068-e05631fdd75a"
       id="linearGradient27"
       gradientTransform="scale(0.91543144,1.0923811)"
       x1="25.325205"
       y1="16.477766"
       x2="83.913017"
       y2="16.477766"
       gradientUnits="userSpaceOnUse" />
    <linearGradient
       inkscape:collect="always"
       xlink:href="#52ba8d79-ae63-4e80-8068-e05631fdd75a"
       id="linearGradient29"
       gradientTransform="scale(0.91543144,1.0923811)"
       x1="25.325205"
       y1="16.477766"
       x2="83.913017"
       y2="16.477766"
       gradientUnits="userSpaceOnUse" />
  </defs>
  <defs
     data-v-fde0c5aa=""
     id="defs6">
    <!---->
  </defs>
  <defs
     data-v-fde0c5aa=""
     id="defs16">
    <linearGradient
       data-v-fde0c5aa=""
       gradientTransform="rotate(25)"
       id="52ba8d79-ae63-4e80-8068-e05631fdd75a"
       x1="0"
       y1="0"
       x2="1"
       y2="0">
      <stop
         data-v-fde0c5aa=""
         offset="0%"
         stop-color="#01695A"
         stop-opacity="1"
         id="stop11" />
      <stop
         data-v-fde0c5aa=""
         offset="100%"
         stop-color="#2CC26F"
         stop-opacity="1"
         id="stop13" />
    </linearGradient>
  </defs>
  <g
     data-v-fde0c5aa=""
     id="c16e4711-f0ee-4820-9228-8a7d07024478"
     stroke="none"
     fill="url(#52ba8d79-ae63-4e80-8068-e05631fdd75a)"
     transform="matrix(0.64003533,0,0,0.64003533,-14.838252,-11.520636)"
     style="fill:url(#linearGradient29)">
    <path
       d="m 50.195,18 v 0.02 c -0.498,0 -0.96,0.259 -1.234,0.672 -2.738,3.97 -11.417,7.347 -21.346,7.405 h -0.078 c -0.059,0 -0.117,-0.024 -0.176,-0.024 -0.716,0 -1.331,0.496 -1.477,1.192 0,0 -1.502,6.75 -2.253,14.912 -0.752,8.163 -0.906,17.72 2.394,23.893 2.472,4.623 8.32,8.342 13.542,11.17 4.829,2.617 8.81,4.199 9.436,4.445 0.285,0.22 0.64,0.33 1,0.313 0.363,0.02 0.72,-0.096 1.004,-0.32 h 0.008 c 0.653,-0.257 4.617,-1.827 9.429,-4.434 5.221,-2.828 11.062,-6.547 13.534,-11.17 3.3,-6.172 3.142,-15.73 2.39,-23.893 -0.752,-8.163 -2.253,-14.912 -2.253,-14.912 a 1.5,1.5 0 0 0 -1.516,-1.192 h -0.12 C 62.936,26.039 54.553,22.843 51.629,18.984 A 1.502,1.502 0 0 0 50.195,18.008 Z M 50,33.999 c 8.818,0 15.998,7.18 15.998,15.998 0,8.818 -7.18,15.999 -15.998,15.999 -8.818,0 -16,-7.181 -16,-15.999 0,-8.818 7.18,-15.998 15.999,-15.998 z m 0,3 A 12.976,12.976 0 0 0 37,49.997 12.976,12.976 0 0 0 50,62.996 12.976,12.976 0 0 0 62.998,49.997 12.976,12.976 0 0 0 50,36.998 Z m -2.766,3.206 h 5.531 a 1.5,1.5 0 0 1 1.496,1.5 v 4.027 h 4.03 a 1.5,1.5 0 0 1 1.5,1.5 v 5.527 a 1.5,1.5 0 0 1 -1.5,1.5 h -4.03 v 4.03 a 1.5,1.5 0 0 1 -1.496,1.496 h -5.53 a 1.5,1.5 0 0 1 -1.497,-1.496 v -4.03 h -4.03 a 1.5,1.5 0 0 1 -1.5,-1.5 v -5.527 a 1.5,1.5 0 0 1 1.5,-1.5 h 4.03 v -4.027 a 1.5,1.5 0 0 1 1.496,-1.5 z m 1.5,3 v 4.027 a 1.5,1.5 0 0 1 -1.5,1.5 h -4.027 v 2.53 h 4.027 a 1.5,1.5 0 0 1 1.5,1.497 v 4.03 h 2.531 v -4.03 a 1.5,1.5 0 0 1 1.5,-1.496 h 4.027 v -2.531 h -4.027 a 1.5,1.5 0 0 1 -1.5,-1.5 v -4.027 h -2.53 z"
       style="line-height:normal;text-indent:0;text-align:start;text-decoration:none;text-decoration-line:none;text-decoration-style:solid;text-decoration-color:#000000;text-transform:none;isolation:auto;mix-blend-mode:normal;fill:url(#linearGradient27)"
       color="#000000"
       font-weight="400"
       font-family="sans-serif"
       white-space="normal"
       overflow="visible"
       stroke-width="0.882"
       stroke-linecap="round"
       stroke-linejoin="round"
       id="path18" />
  </g>
  <!---->
</svg>
